<svg width="29" height="28" viewBox="0 0 29 28" fill="none" xmlns="http://www.w3.org/2000/svg">
<path fill-rule="evenodd" clip-rule="evenodd" d="M4.39147 23.9471C4.39916 23.9551 4.40706 23.9629 4.41516 23.9704C6.94308 26.4617 10.413 28 14.2393 28C18.0656 28 21.5354 26.4617 24.064 23.9698C24.0716 23.9627 24.0791 23.9552 24.0864 23.9476C26.6502 21.4096 28.2393 17.8889 28.2393 14.0001C28.2393 10.1112 26.6502 6.59043 24.0866 4.05253L24.0473 4.01379C23.3961 3.376 22.6856 2.80011 21.9243 2.29879C20.6787 1.47865 19.3026 0.85949 17.8619 0.474052C16.681 0.15813 15.4614 0.00195722 14.2393 0C10.413 0 6.94308 1.53831 4.41455 4.03019C4.40665 4.03754 4.39896 4.04517 4.39147 4.05293C1.82832 6.59043 0.239258 10.1111 0.239258 14C0.239258 17.8889 1.82832 21.4096 4.39147 23.9471ZM8.79562 22.0058C7.8357 22.3943 6.85676 22.9081 5.86876 23.5718C7.68662 25.1632 9.96199 26.2459 12.4707 26.5955C10.8938 25.0458 9.69061 23.5099 8.79562 22.0058ZM19.6453 22.0687C18.7543 23.5527 17.5628 25.0673 16.0079 26.5955C18.5149 26.246 20.7889 25.1646 22.607 23.574C22.0016 23.1828 20.9782 22.5895 19.6453 22.0687ZM14.8804 21.0004V25.9031C16.3804 24.4619 17.5364 23.0358 18.4044 21.6387C17.3533 21.3205 16.1664 21.0765 14.8804 21.0004ZM13.5981 20.9826C12.4637 21.0186 11.2672 21.1956 10.0314 21.5695C10.9041 22.9888 12.0734 24.4381 13.5981 25.903V20.9826ZM23.5487 22.661C25.5269 20.5359 26.7871 17.7332 26.941 14.6412H21.9035C21.8962 14.9433 21.8789 15.2481 21.851 15.5557C21.6951 17.2727 21.2105 19.0791 20.2691 20.9403C21.8074 21.5591 22.9498 22.2576 23.5487 22.661ZM8.17396 20.8699C7.25569 19.0331 6.78144 17.2508 6.62749 15.5557C6.59962 15.2482 6.58234 14.9434 6.57498 14.6412H1.5375C1.69138 17.7327 2.95122 20.535 4.92916 22.6603C6.02345 21.9018 7.10836 21.3146 8.17396 20.8699ZM19.0527 20.5001C19.9581 18.7523 20.4271 17.0564 20.5739 15.4396C20.5983 15.171 20.6139 14.9047 20.6213 14.6412H14.8804V19.7108C16.4176 19.7967 17.8263 20.1047 19.0527 20.5001ZM13.5981 19.6927V14.6412H7.85723C7.86459 14.9051 7.88018 15.1712 7.90461 15.4396C8.04918 17.0321 8.50636 18.7012 9.38522 20.4212C10.8485 19.9468 12.2633 19.7299 13.5981 19.6927ZM26.941 13.3588C26.7871 10.267 25.5271 7.46457 23.5487 5.33903C22.9275 5.75747 21.7219 6.49311 20.0964 7.12813C21.0123 8.94909 21.72 11.0555 21.8756 13.3588H26.941ZM20.5931 13.3588C20.4392 11.2077 19.7652 9.24382 18.8978 7.54907C17.7079 7.92067 16.3532 8.20683 14.8804 8.28917V13.3588H20.5931ZM13.5981 13.3588V8.30732C12.31 8.27128 10.9482 8.0682 9.54044 7.62823C8.6927 9.30422 8.03689 11.2407 7.88538 13.3588H13.5981ZM6.60299 13.3588C6.75653 11.0864 7.44743 9.00571 8.3458 7.20068C7.22613 6.74843 6.08284 6.13926 4.92923 5.3397C2.95136 7.46464 1.69138 10.267 1.5375 13.3588H6.60299ZM13.5981 2.10469C12.6889 3.01183 11.3391 4.52044 10.176 6.47341C11.3607 6.81794 12.5079 6.98269 13.5981 7.01738V2.10469ZM14.8804 2.10462V6.99956C16.1083 6.92694 17.2458 6.70125 18.2609 6.40396C17.1076 4.48494 15.779 3.00123 14.8804 2.10462ZM12.5064 1.39962C9.98413 1.74375 7.69607 2.82879 5.86883 4.42831C6.91318 5.12981 7.94747 5.66379 8.96009 6.05956C10.1394 4.02357 11.5172 2.42027 12.5064 1.39962ZM15.9721 1.39962C16.9509 2.40968 18.3099 3.98963 19.4807 5.99463C20.894 5.45916 21.9767 4.83325 22.607 4.42595C20.7804 2.82798 18.4933 1.74375 15.9721 1.39962Z" fill="url(#paint0_linear_28_299)"/>
<defs>
<linearGradient id="paint0_linear_28_299" x1="14.2393" y1="0" x2="14.2393" y2="28" gradientUnits="userSpaceOnUse">
<stop stop-color="#2991FB"/>
<stop offset="1" stop-color="#392DB0"/>
</linearGradient>
</defs>
</svg>
