<svg width="30" height="22" viewBox="0 0 30 22" fill="none" xmlns="http://www.w3.org/2000/svg">
<path d="M25.7376 21.1775H4.46084C3.34161 21.1762 2.2686 20.731 1.47718 19.9395C0.685767 19.1481 0.240572 18.0751 0.239258 16.9559V4.22159C0.240572 3.10236 0.685767 2.02934 1.47718 1.23793C2.2686 0.44651 3.34161 0.00131442 4.46084 0H25.7376C26.8569 0.00131442 27.9299 0.44651 28.7213 1.23793C29.5127 2.02934 29.9579 3.10236 29.9592 4.22159V16.9559C29.9579 18.0751 29.5127 19.1481 28.7213 19.9395C27.9299 20.731 26.8569 21.1762 25.7376 21.1775ZM4.46084 1.48997C3.73638 1.48997 3.04158 1.77777 2.5293 2.29004C2.01702 2.80232 1.72923 3.49712 1.72923 4.22159V16.9559C1.72923 17.6803 2.01702 18.3751 2.5293 18.8874C3.04158 19.3997 3.73638 19.6875 4.46084 19.6875H25.7376C26.4621 19.6875 27.1569 19.3997 27.6692 18.8874C28.1815 18.3751 28.4693 17.6803 28.4693 16.9559V4.22159C28.4693 3.49712 28.1815 2.80232 27.6692 2.29004C27.1569 1.77777 26.4621 1.48997 25.7376 1.48997H4.46084Z" fill="url(#paint0_linear_28_293)"/>
<path d="M1.27733 19.1008C1.12623 19.101 0.978642 19.0553 0.854138 18.9697C0.729633 18.8841 0.634104 18.7626 0.580224 18.6215C0.526345 18.4803 0.516663 18.3261 0.552464 18.1793C0.588264 18.0325 0.667855 17.9001 0.780674 17.7996L9.91917 9.64942C10.0667 9.5177 10.2605 9.44998 10.458 9.46115C10.6554 9.47233 10.8404 9.56149 10.9721 9.70902C11.1038 9.85655 11.1715 10.0504 11.1603 10.2478C11.1492 10.4453 11.06 10.6302 10.9125 10.7619L1.77399 18.9121C1.63828 19.0356 1.4608 19.103 1.27733 19.1008ZM28.9213 19.1008C28.7378 19.103 28.5603 19.0356 28.4246 18.9121L19.2861 10.7619C19.1386 10.6302 19.0494 10.4453 19.0383 10.2478C19.0271 10.0504 19.0948 9.85655 19.2265 9.70902C19.3582 9.56149 19.5432 9.47233 19.7406 9.46115C19.9381 9.44998 20.1319 9.5177 20.2794 9.64942L29.413 17.7996C29.5258 17.9001 29.6054 18.0325 29.6412 18.1793C29.677 18.3261 29.6673 18.4803 29.6134 18.6215C29.5595 18.7626 29.464 18.8841 29.3395 18.9697C29.215 19.0553 29.0674 19.101 28.9163 19.1008H28.9213Z" fill="url(#paint1_linear_28_293)"/>
<path d="M15.0993 13.6088C14.1802 13.6103 13.2858 13.3121 12.5514 12.7595L0.954467 3.98857C0.872529 3.93106 0.803021 3.85763 0.750095 3.77266C0.697168 3.68769 0.661908 3.59293 0.646421 3.49403C0.630934 3.39513 0.635537 3.29413 0.659955 3.19705C0.684374 3.09997 0.728107 3.00881 0.788542 2.929C0.848978 2.8492 0.924876 2.7824 1.0117 2.73259C1.09853 2.68277 1.19451 2.65096 1.29391 2.63907C1.3933 2.62717 1.49407 2.63543 1.5902 2.66335C1.68634 2.69126 1.77586 2.73827 1.85342 2.80156L13.4504 11.5825C13.9266 11.938 14.505 12.13 15.0993 12.13C15.6936 12.13 16.2719 11.938 16.7482 11.5825L28.3451 2.80156C28.4227 2.73827 28.5122 2.69126 28.6083 2.66335C28.7045 2.63543 28.8052 2.62717 28.9046 2.63907C29.004 2.65096 29.1 2.68277 29.1868 2.73259C29.2737 2.7824 29.3496 2.8492 29.41 2.929C29.4704 3.00881 29.5142 3.09997 29.5386 3.19705C29.563 3.29413 29.5676 3.39513 29.5521 3.49403C29.5366 3.59293 29.5014 3.68769 29.4484 3.77266C29.3955 3.85763 29.326 3.93106 29.2441 3.98857L17.6471 12.7595C16.9128 13.3121 16.0183 13.6103 15.0993 13.6088Z" fill="#2991FB"/>
<defs>
<linearGradient id="paint0_linear_28_293" x1="15.0992" y1="0" x2="15.0992" y2="21.1775" gradientUnits="userSpaceOnUse">
<stop stop-color="#2991FB"/>
<stop offset="1" stop-color="#392DB0"/>
</linearGradient>
<linearGradient id="paint1_linear_28_293" x1="15.0968" y1="9.45996" x2="15.0968" y2="19.1009" gradientUnits="userSpaceOnUse">
<stop stop-color="#2991FB"/>
<stop offset="1" stop-color="#392DB0"/>
</linearGradient>
</defs>
</svg>
