<svg width="29" height="27" viewBox="0 0 29 27" fill="none" xmlns="http://www.w3.org/2000/svg">
<path d="M6.9773 9.45568C6.97696 9.45568 6.97755 9.45568 6.9773 9.45568H1.48929C1.11067 9.45543 0.803641 9.75724 0.80339 10.1296C0.80339 10.1294 0.80339 10.13 0.80339 10.1296V26.3252C0.803139 26.6977 1.10992 26.9998 1.48845 27C1.4882 27 1.48878 27 1.48845 27H6.97646C7.35508 27.0002 7.66211 26.6984 7.66236 26.326C7.66236 26.3257 7.66236 26.3262 7.66236 26.326V10.1305C7.66261 9.75798 7.35583 9.45593 6.9773 9.45568ZM6.29056 25.6504H2.17518V10.8052H6.29056V25.6504ZM21.3803 9.45568C19.8921 9.45576 18.4456 9.93895 17.2649 10.8303V10.1305C17.2652 9.75798 16.9584 9.45593 16.5799 9.45568C16.5795 9.45568 16.5801 9.45568 16.5799 9.45568H11.0918C10.7132 9.45543 10.4062 9.75724 10.4059 10.1296C10.4059 10.1294 10.4059 10.13 10.4059 10.1296V26.3252C10.4057 26.6977 10.7125 26.9998 11.0911 27C11.0908 27 11.0913 27 11.0911 27H16.579C16.9576 27.0002 17.2647 26.6984 17.2649 26.326C17.2649 26.3257 17.2649 26.3262 17.2649 26.326V18.9026C17.2649 17.7846 18.1862 16.8783 19.3226 16.8783C20.459 16.8783 21.3803 17.7846 21.3803 18.9026V26.3252C21.38 26.6977 21.6868 26.9998 22.0654 27C22.0652 27 22.0657 27 22.0654 27H27.5534C27.932 27.0002 28.239 26.6984 28.2393 26.326C28.2393 26.3257 28.2393 26.3262 28.2393 26.326V16.2035C28.2348 12.4786 25.1665 9.46005 21.3803 9.45568ZM26.8675 25.6504H22.7521V18.9026C22.7521 17.0392 21.2167 15.5287 19.3226 15.5287C17.4285 15.5287 15.8931 17.0392 15.8931 18.9026V25.6504H11.7777V10.8052H15.8931V12.4289C15.8931 12.7157 16.0775 12.971 16.3527 13.0655C16.6272 13.1629 16.9344 13.0763 17.115 12.8507C18.9841 10.5202 22.4196 10.1218 24.7884 11.9607C26.1079 12.9851 26.8748 14.5499 26.8675 16.2035V25.6504ZM4.73767 0.0112105C4.57632 9.03872e-05 4.4144 -0.00073319 4.25297 0.00873939C2.18255 -0.130385 0.389525 1.40805 0.248109 3.44492C0.242415 3.52688 0.239569 3.60892 0.239401 3.69104C0.221567 5.71061 1.87125 7.36198 3.92409 7.37953C4.0079 7.38027 4.09163 7.37812 4.17527 7.37326H4.21412C6.2806 7.51552 8.07296 5.98276 8.21756 3.94977C8.36215 1.91678 6.80415 0.153465 4.73767 0.0112105ZM4.69028 6.02757C4.53187 6.04191 4.37228 6.04067 4.21412 6.0237H4.17527C2.86368 6.12288 1.71878 5.15733 1.61798 3.86699C1.51717 2.57673 2.49862 1.45031 3.81022 1.35114C3.95774 1.34002 4.10594 1.3424 4.25297 1.3583C5.56356 1.23952 6.72394 2.18844 6.84476 3.47779C6.96549 4.76722 6.00095 5.90879 4.69028 6.02757Z" fill="url(#paint0_linear_28_305)"/>
<defs>
<linearGradient id="paint0_linear_28_305" x1="14.2393" y1="0" x2="14.2393" y2="27" gradientUnits="userSpaceOnUse">
<stop stop-color="#2991FB"/>
<stop offset="1" stop-color="#392DB0"/>
</linearGradient>
</defs>
</svg>
