<svg width="29" height="28" viewBox="0 0 29 28" fill="none" xmlns="http://www.w3.org/2000/svg">
<path d="M27.0706 19.2901L24.5704 16.7899C23.8251 16.0506 22.8192 15.6338 21.7694 15.6293C20.7197 15.6248 19.7102 16.0331 18.9587 16.766C18.5577 17.1693 18.0286 17.4202 17.4626 17.4756C16.8965 17.531 16.3289 17.3874 15.8573 17.0694C13.9961 15.8273 12.3971 14.2314 11.1513 12.3725C10.839 11.8957 10.7006 11.3257 10.7593 10.7587C10.8181 10.1918 11.0705 9.66237 11.4741 9.25975C12.2004 8.5075 12.6033 7.50083 12.5968 6.4552C12.5902 5.40957 12.1745 4.40805 11.4388 3.66501L8.93867 1.16482C8.19015 0.418859 7.17648 0 6.11973 0C5.06298 0 4.04931 0.418859 3.30079 1.16482L2.58142 1.88533C-1.16883 5.63561 -0.888131 13.5203 6.91467 21.3186C11.6195 26.0247 16.3551 27.9953 20.1951 27.9953C21.3255 28.0329 22.4521 27.8452 23.5092 27.4431C24.5663 27.041 25.5328 26.4325 26.3524 25.6531L27.0729 24.9325C27.8202 24.1837 28.2397 23.1688 28.2393 22.1108C28.2388 21.0529 27.8185 20.0383 27.0706 19.2901ZM25.4637 23.3256L24.7431 24.0461C21.7884 27.0009 15.2664 26.4611 8.51932 19.7128C1.77228 12.9646 1.23133 6.43795 4.18608 3.48318L4.9009 2.7638C5.22275 2.44312 5.65857 2.26305 6.11291 2.26305C6.56725 2.26305 7.00308 2.44312 7.32492 2.7638L9.8251 5.26399C10.1411 5.58158 10.3205 6.0101 10.3249 6.45809C10.3294 6.90609 10.1586 7.33809 9.84896 7.6619C9.08104 8.43473 8.60202 9.44797 8.49216 10.5319C8.3823 11.6158 8.64827 12.7046 9.24551 13.6158C10.661 15.734 12.4812 17.5516 14.6016 18.9639C15.51 19.5612 16.5959 19.8288 17.6779 19.7218C18.7598 19.6149 19.7723 19.14 20.5463 18.3764C20.8695 18.0631 21.3027 17.8891 21.7528 17.8919C22.2029 17.8946 22.6339 18.0739 22.9533 18.3911L25.4534 20.8913C25.6146 21.0501 25.7427 21.2392 25.8305 21.4478C25.9183 21.6563 25.9639 21.8801 25.9649 22.1063C25.9658 22.3326 25.922 22.5568 25.836 22.766C25.75 22.9753 25.6234 23.1654 25.4637 23.3256Z" fill="url(#paint0_linear_28_302)"/>
<defs>
<linearGradient id="paint0_linear_28_302" x1="14.2393" y1="0" x2="14.2393" y2="28" gradientUnits="userSpaceOnUse">
<stop stop-color="#2991FB"/>
<stop offset="1" stop-color="#392DB0"/>
</linearGradient>
</defs>
</svg>
